<?xml version="1.0" encoding="utf-8"?>
<!-- Generator: Adobe Illustrator 16.0.3, SVG Export Plug-In . SVG Version: 6.00 Build 0)  -->
<!DOCTYPE svg PUBLIC "-//W3C//DTD SVG 1.1//EN" "http://www.w3.org/Graphics/SVG/1.1/DTD/svg11.dtd">
<svg version="1.1" id="Capa_1" xmlns="http://www.w3.org/2000/svg" xmlns:xlink="http://www.w3.org/1999/xlink" x="0px" y="0px"
	 width="120px" height="120px" viewBox="0 0 120 120" enable-background="new 0 0 120 120" xml:space="preserve">
<path fill="#808080" d="M67.022,61.808h-6.587v6.586c0,0.778-0.637,1.414-1.414,1.414c-0.389,0-0.742-0.158-0.999-0.415
	s-0.415-0.61-0.415-0.999v-6.586h-6.587c-0.39,0-0.743-0.16-0.999-0.416s-0.416-0.61-0.416-0.999c0-0.778,0.637-1.415,1.415-1.415
	h6.587v-6.587c0-0.777,0.636-1.414,1.414-1.414c0.777,0,1.414,0.637,1.414,1.414v6.587h6.587c0.778,0,1.415,0.637,1.415,1.415
	S67.801,61.808,67.022,61.808z M76.344,45.547H43.895v28.428h32.449V45.547z"/>
</svg>
