<?xml version="1.0" encoding="utf-8"?>
<!-- Generator: Adobe Illustrator 16.0.3, SVG Export Plug-In . SVG Version: 6.00 Build 0)  -->
<!DOCTYPE svg PUBLIC "-//W3C//DTD SVG 1.1//EN" "http://www.w3.org/Graphics/SVG/1.1/DTD/svg11.dtd">
<svg version="1.1" id="Capa_1" xmlns="http://www.w3.org/2000/svg" xmlns:xlink="http://www.w3.org/1999/xlink" x="0px" y="0px"
	 width="800px" height="500px" viewBox="0 0 800 500" enable-background="new 0 0 800 500" xml:space="preserve">
<g>
	<g>
		
			<image overflow="visible" opacity="0.75" enable-background="new    " width="2288" height="521" xlink:href="A1F04ACC.png"  transform="matrix(0.2396 0 0 0.2377 120.0601 188.3799)">
		</image>
		<g>
			<rect x="128.061" y="196.38" fill="#FFFFFF" width="518" height="93.681"/>
		</g>
	</g>
	<g>
		<path fill="#6FC1D1" d="M306.25,256.717l9.896-25.769h3.674l10.547,25.769h-3.885l-3.006-7.804h-10.775l-2.83,7.804H306.25z
			 M313.685,246.135h8.736l-2.689-7.137c-0.82-2.168-1.43-3.949-1.828-5.344c-0.328,1.652-0.791,3.293-1.389,4.922L313.685,246.135z
			"/>
		<path fill="#6FC1D1" d="M344.869,249.879l3.111,0.404c-0.34,2.144-1.21,3.824-2.61,5.037s-3.12,1.818-5.159,1.818
			c-2.555,0-4.608-0.834-6.161-2.505c-1.553-1.67-2.329-4.063-2.329-7.181c0-2.016,0.334-3.779,1.002-5.291
			c0.668-1.512,1.685-2.646,3.05-3.401c1.365-0.755,2.851-1.134,4.456-1.134c2.027,0,3.686,0.513,4.975,1.538
			s2.115,2.481,2.479,4.368l-3.076,0.475c-0.293-1.254-0.812-2.197-1.556-2.83c-0.744-0.633-1.644-0.949-2.698-0.949
			c-1.594,0-2.889,0.571-3.885,1.714c-0.996,1.143-1.494,2.95-1.494,5.423c0,2.508,0.48,4.329,1.441,5.466
			c0.961,1.136,2.215,1.705,3.762,1.705c1.242,0,2.279-0.381,3.111-1.143C344.12,252.632,344.646,251.461,344.869,249.879z"/>
		<path fill="#6FC1D1" d="M363.466,250.706l3.27,0.403c-0.516,1.91-1.471,3.394-2.865,4.447c-1.394,1.055-3.176,1.582-5.344,1.582
			c-2.73,0-4.896-0.84-6.495-2.521c-1.599-1.681-2.399-4.041-2.399-7.076c0-3.141,0.809-5.578,2.426-7.313
			c1.617-1.735,3.715-2.602,6.293-2.602c2.496,0,4.535,0.85,6.117,2.549c1.582,1.699,2.373,4.09,2.373,7.172
			c0,0.188-0.006,0.469-0.018,0.844h-13.922c0.117,2.051,0.697,3.621,1.74,4.71c1.043,1.089,2.344,1.635,3.902,1.635
			c1.16,0,2.15-0.305,2.971-0.914C362.336,253.014,362.986,252.041,363.466,250.706z M353.078,245.59h10.424
			c-0.141-1.57-0.539-2.748-1.195-3.533c-1.008-1.219-2.314-1.828-3.92-1.828c-1.453,0-2.675,0.486-3.665,1.459
			C353.732,242.661,353.183,243.961,353.078,245.59z"/>
		<path fill="#6FC1D1" d="M370.708,263.871v-25.822h2.883v2.426c0.68-0.949,1.447-1.661,2.303-2.136s1.893-0.712,3.111-0.712
			c1.594,0,3,0.41,4.219,1.23c1.219,0.82,2.139,1.978,2.76,3.472s0.932,3.132,0.932,4.913c0,1.91-0.343,3.63-1.028,5.16
			c-0.686,1.529-1.682,2.701-2.988,3.516s-2.681,1.221-4.122,1.221c-1.055,0-2.001-0.223-2.839-0.668s-1.526-1.008-2.065-1.688
			v9.088H370.708L370.708,263.871z M373.574,247.489c0,2.402,0.486,4.177,1.459,5.325c0.973,1.149,2.15,1.724,3.533,1.724
			c1.406,0,2.61-0.595,3.612-1.783c1.002-1.188,1.503-3.033,1.503-5.529c0-2.379-0.489-4.16-1.468-5.344
			c-0.979-1.184-2.147-1.775-3.507-1.775c-1.348,0-2.54,0.63-3.577,1.89C374.092,243.257,373.574,245.086,373.574,247.489z"/>
		<path fill="#6FC1D1" d="M397.638,253.887l0.457,2.795c-0.891,0.188-1.688,0.281-2.391,0.281c-1.148,0-2.039-0.182-2.672-0.545
			c-0.633-0.363-1.078-0.84-1.336-1.432c-0.258-0.592-0.387-1.838-0.387-3.736v-10.74h-2.32v-2.461h2.32v-4.623l3.146-1.898v6.521
			h3.182v2.461h-3.182v10.916c0,0.902,0.056,1.482,0.167,1.74s0.293,0.463,0.545,0.615s0.612,0.229,1.081,0.229
			C396.601,254.01,397.064,253.969,397.638,253.887z"/>
		<path fill="#6FC1D1" d="M412.914,254.414c-1.172,0.996-2.301,1.699-3.385,2.109s-2.246,0.615-3.488,0.615
			c-2.051,0-3.627-0.5-4.729-1.503c-1.103-1.002-1.653-2.282-1.653-3.842c0-0.914,0.208-1.749,0.624-2.504s0.96-1.362,1.634-1.819
			s1.435-0.803,2.276-1.037c0.621-0.164,1.56-0.322,2.813-0.475c2.556-0.305,4.437-0.668,5.644-1.09
			c0.012-0.434,0.018-0.709,0.018-0.826c0-1.289-0.299-2.197-0.896-2.725c-0.809-0.715-2.01-1.072-3.604-1.072
			c-1.488,0-2.588,0.261-3.297,0.782s-1.232,1.444-1.572,2.769l-3.094-0.422c0.281-1.324,0.744-2.394,1.389-3.208
			s1.576-1.441,2.795-1.881s2.631-0.659,4.236-0.659c1.594,0,2.889,0.188,3.885,0.563s1.729,0.847,2.197,1.415
			s0.797,1.286,0.984,2.153c0.104,0.539,0.158,1.512,0.158,2.918v4.219c0,2.941,0.065,4.802,0.2,5.582
			c0.136,0.78,0.402,1.525,0.802,2.24h-3.306C413.219,256.061,413.008,255.293,412.914,254.414z M412.65,247.348
			c-1.148,0.469-2.871,0.867-5.168,1.195c-1.301,0.188-2.222,0.398-2.76,0.633c-0.539,0.235-0.955,0.577-1.248,1.028
			s-0.439,0.952-0.439,1.502c0,0.844,0.318,1.547,0.957,2.108c0.639,0.563,1.574,0.845,2.805,0.845c1.219,0,2.303-0.267,3.252-0.8
			c0.949-0.532,1.646-1.264,2.092-2.188c0.34-0.714,0.51-1.769,0.51-3.164V247.348L412.65,247.348z"/>
		<path fill="#6FC1D1" d="M420.719,256.717V238.05h2.849v2.83c0.727-1.324,1.396-2.197,2.012-2.619
			c0.616-0.422,1.293-0.633,2.031-0.633c1.065,0,2.149,0.34,3.252,1.02l-1.09,2.936c-0.773-0.457-1.548-0.686-2.32-0.686
			c-0.691,0-1.313,0.208-1.863,0.624s-0.943,0.993-1.178,1.731c-0.353,1.125-0.527,2.355-0.527,3.691v9.773H420.719z"/>
	</g>
</g>
</svg>
