<?xml version="1.0" encoding="utf-8"?>
<!-- Generator: Adobe Illustrator 16.0.3, SVG Export Plug-In . SVG Version: 6.00 Build 0)  -->
<!DOCTYPE svg PUBLIC "-//W3C//DTD SVG 1.1//EN" "http://www.w3.org/Graphics/SVG/1.1/DTD/svg11.dtd">
<svg version="1.1" id="Capa_1" xmlns="http://www.w3.org/2000/svg" xmlns:xlink="http://www.w3.org/1999/xlink" x="0px" y="0px"
	 width="400px" height="200px" viewBox="0 0 400 200" enable-background="new 0 0 400 200" xml:space="preserve">
<g>
	<g>
		<rect x="71.083" y="75.286" fill-rule="evenodd" clip-rule="evenodd" fill="#6FC1D1" width="234.396" height="44.9"/>
	</g>
	<g>
		<g>
			<path fill="#FFFFFF" d="M118.357,88.337c1.59-0.24,3.48-0.42,5.55-0.42c3.75,0,6.42,0.87,8.19,2.52c1.8,1.65,2.85,3.99,2.85,7.26
				c0,3.3-1.02,6-2.91,7.86c-1.89,1.89-5.01,2.909-8.94,2.909c-1.86,0-3.419-0.09-4.74-0.239V88.337z M120.967,106.216
				c0.66,0.12,1.62,0.15,2.64,0.15c5.58,0,8.609-3.12,8.609-8.58c0.03-4.77-2.67-7.799-8.189-7.799c-1.35,0-2.37,0.119-3.06,0.27
				V106.216z"/>
			<path fill="#FFFFFF" d="M139.837,101.507c0.06,3.569,2.34,5.039,4.98,5.039c1.89,0,3.03-0.33,4.02-0.75l0.45,1.891
				c-0.93,0.42-2.52,0.93-4.83,0.93c-4.47,0-7.14-2.97-7.14-7.35s2.58-7.83,6.81-7.83c4.74,0,6,4.17,6,6.84
				c0,0.54-0.06,0.96-0.09,1.23H139.837z M147.577,99.616c0.03-1.68-0.69-4.29-3.66-4.29c-2.67,0-3.84,2.46-4.05,4.29H147.577z"/>
			<path fill="#FFFFFF" d="M153.037,105.586c0.78,0.511,2.16,1.05,3.479,1.05c1.92,0,2.82-0.96,2.82-2.159
				c0-1.26-0.75-1.95-2.7-2.67c-2.61-0.931-3.84-2.37-3.84-4.11c0-2.34,1.89-4.26,5.01-4.26c1.47,0,2.76,0.42,3.57,0.9l-0.66,1.92
				c-0.57-0.36-1.62-0.84-2.97-0.84c-1.56,0-2.43,0.899-2.43,1.979c0,1.2,0.87,1.74,2.76,2.46c2.52,0.96,3.81,2.22,3.81,4.38
				c0,2.55-1.98,4.38-5.43,4.38c-1.59,0-3.06-0.42-4.08-1.021L153.037,105.586z"/>
			<path fill="#FFFFFF" d="M175.626,107.746c-0.69,0.36-2.22,0.87-4.17,0.87c-4.38,0-7.229-3-7.229-7.439
				c0-4.47,3.06-7.71,7.799-7.71c1.56,0,2.94,0.39,3.66,0.75l-0.6,2.04c-0.63-0.36-1.62-0.69-3.06-0.69
				c-3.33,0-5.129,2.46-5.129,5.49c0,3.359,2.16,5.43,5.04,5.43c1.5,0,2.49-0.39,3.24-0.72L175.626,107.746z"/>
			<path fill="#FFFFFF" d="M178.717,98.297c0-1.71-0.03-3.181-0.12-4.53h2.31l0.09,2.85h0.12c0.66-1.949,2.25-3.18,4.02-3.18
				c0.3,0,0.51,0.03,0.75,0.09v2.49c-0.27-0.06-0.54-0.09-0.9-0.09c-1.86,0-3.18,1.41-3.54,3.39c-0.06,0.36-0.12,0.78-0.12,1.23
				v7.739h-2.61V98.297z"/>
			<path fill="#FFFFFF" d="M191.586,89.687c0.03,0.9-0.63,1.62-1.68,1.62c-0.93,0-1.59-0.72-1.59-1.62c0-0.93,0.69-1.649,1.65-1.649
				C190.957,88.037,191.586,88.757,191.586,89.687z M188.646,108.286v-14.52h2.64v14.52H188.646z"/>
			<path fill="#FFFFFF" d="M195.667,98.507c0-1.86-0.06-3.36-0.12-4.74h2.37l0.12,2.49h0.06c1.08-1.771,2.79-2.82,5.16-2.82
				c3.51,0,6.15,2.97,6.15,7.38c0,5.22-3.18,7.8-6.6,7.8c-1.92,0-3.6-0.84-4.47-2.28h-0.06v7.89h-2.61V98.507z M198.276,102.376
				c0,0.391,0.06,0.75,0.12,1.08c0.48,1.83,2.07,3.09,3.96,3.09c2.79,0,4.409-2.279,4.409-5.609c0-2.91-1.529-5.399-4.319-5.399
				c-1.8,0-3.48,1.289-3.99,3.27c-0.09,0.33-0.18,0.72-0.18,1.08V102.376z"/>
			<path fill="#FFFFFF" d="M223.086,107.746c-0.69,0.36-2.221,0.87-4.17,0.87c-4.381,0-7.23-3-7.23-7.439
				c0-4.47,3.061-7.71,7.8-7.71c1.56,0,2.94,0.39,3.66,0.75l-0.601,2.04c-0.629-0.36-1.619-0.69-3.06-0.69
				c-3.329,0-5.13,2.46-5.13,5.49c0,3.359,2.16,5.43,5.04,5.43c1.5,0,2.489-0.39,3.239-0.72L223.086,107.746z"/>
			<path fill="#FFFFFF" d="M229.115,89.687c0.03,0.9-0.629,1.62-1.68,1.62c-0.93,0-1.59-0.72-1.59-1.62
				c0-0.93,0.689-1.649,1.65-1.649C228.486,88.037,229.115,88.757,229.115,89.687z M226.176,108.286v-14.52h2.64v14.52H226.176z"/>
			<path fill="#FFFFFF" d="M246.336,100.906c0,5.37-3.721,7.71-7.23,7.71c-3.93,0-6.959-2.88-6.959-7.47
				c0-4.859,3.18-7.71,7.199-7.71C243.516,93.437,246.336,96.467,246.336,100.906z M234.816,101.057c0,3.18,1.829,5.579,4.409,5.579
				c2.521,0,4.409-2.369,4.409-5.64c0-2.46-1.229-5.579-4.35-5.579C236.166,95.417,234.816,98.297,234.816,101.057z M243.186,87.497
				l-3.66,4.29h-1.89l2.64-4.29H243.186z"/>
			<path fill="#FFFFFF" d="M249.666,97.696c0-1.5-0.03-2.729-0.121-3.93h2.34l0.15,2.4h0.061c0.72-1.38,2.399-2.73,4.799-2.73
				c2.011,0,5.131,1.2,5.131,6.18v8.67h-2.641v-8.37c0-2.34-0.869-4.289-3.359-4.289c-1.74,0-3.09,1.229-3.54,2.699
				c-0.12,0.33-0.181,0.78-0.181,1.23v8.729h-2.639V97.696z"/>
		</g>
	</g>
</g>
</svg>
