<?xml version="1.0" encoding="utf-8"?>
<!-- Generator: Adobe Illustrator 16.0.3, SVG Export Plug-In . SVG Version: 6.00 Build 0)  -->
<!DOCTYPE svg PUBLIC "-//W3C//DTD SVG 1.1//EN" "http://www.w3.org/Graphics/SVG/1.1/DTD/svg11.dtd">
<svg version="1.1" id="Capa_1" xmlns="http://www.w3.org/2000/svg" xmlns:xlink="http://www.w3.org/1999/xlink" x="0px" y="0px"
	 width="120px" height="120px" viewBox="0 0 120 120" enable-background="new 0 0 120 120" xml:space="preserve">
<g>
	<path fill="#F9A61F" d="M58.883,66.102c-4.253,0-7.713-3.459-7.713-7.712c0-4.252,3.46-7.712,7.713-7.712
		c4.252,0,7.712,3.459,7.712,7.712C66.595,62.643,63.135,66.102,58.883,66.102z"/>
	<g>
		<path fill="#D88119" d="M58.883,51.177c3.977,0,7.212,3.235,7.212,7.212c0,3.977-3.235,7.212-7.212,7.212
			c-3.978,0-7.213-3.235-7.213-7.212C51.67,54.413,54.905,51.177,58.883,51.177 M58.883,50.177c-4.535,0-8.213,3.676-8.213,8.212
			c0,4.537,3.678,8.212,8.213,8.212c4.536,0,8.212-3.676,8.212-8.212C67.095,53.853,63.419,50.177,58.883,50.177L58.883,50.177z"/>
	</g>
</g>
</svg>
