<?xml version="1.0" encoding="utf-8"?>
<!-- Generator: Adobe Illustrator 16.0.3, SVG Export Plug-In . SVG Version: 6.00 Build 0)  -->
<!DOCTYPE svg PUBLIC "-//W3C//DTD SVG 1.1//EN" "http://www.w3.org/Graphics/SVG/1.1/DTD/svg11.dtd">
<svg version="1.1" id="Capa_1" xmlns="http://www.w3.org/2000/svg" xmlns:xlink="http://www.w3.org/1999/xlink" x="0px" y="0px"
	 width="120px" height="120px" viewBox="0 0 120 120" enable-background="new 0 0 120 120" xml:space="preserve">
<g>
	<path fill="#FA0F0C" d="M58,65.541c-4.253,0-7.713-3.46-7.713-7.713c0-4.252,3.46-7.712,7.713-7.712
		c4.251,0,7.712,3.459,7.712,7.712C65.713,62.081,62.252,65.541,58,65.541z"/>
	<g>
		<path fill="#C20C0D" d="M58,50.616c3.976,0,7.212,3.235,7.212,7.212c0,3.978-3.236,7.213-7.212,7.213
			c-3.977,0-7.213-3.235-7.213-7.213C50.788,53.852,54.023,50.616,58,50.616 M58,49.616c-4.535,0-8.213,3.676-8.213,8.212
			s3.678,8.213,8.213,8.213c4.537,0,8.212-3.677,8.212-8.213S62.537,49.616,58,49.616L58,49.616z"/>
	</g>
</g>
</svg>
