<?xml version="1.0" encoding="utf-8"?>
<!-- Generator: Adobe Illustrator 16.0.3, SVG Export Plug-In . SVG Version: 6.00 Build 0)  -->
<!DOCTYPE svg PUBLIC "-//W3C//DTD SVG 1.1//EN" "http://www.w3.org/Graphics/SVG/1.1/DTD/svg11.dtd">
<svg version="1.1" id="Capa_1" xmlns="http://www.w3.org/2000/svg" xmlns:xlink="http://www.w3.org/1999/xlink" x="0px" y="0px"
	 width="120px" height="120px" viewBox="0 0 120 120" enable-background="new 0 0 120 120" xml:space="preserve">
<path fill="#ACACAD" d="M55.651,91.713c-18.215,0-33.041-14.828-33.041-33.041s14.826-33.041,33.041-33.041
	c18.212,0,33.038,14.828,33.038,33.041S73.863,91.713,55.651,91.713z M55.651,28.811c-16.471,0-29.861,13.393-29.861,29.861
	s13.391,29.861,29.861,29.861c16.466,0,29.858-13.393,29.858-29.861S72.117,28.811,55.651,28.811z"/>
<g>
	
		<rect x="50.793" y="49.49" transform="matrix(0.7071 0.7071 -0.7071 0.7071 57.7849 -22.1711)" fill="#ACACAD" width="9.725" height="18.353"/>
	<polygon fill="#ACACAD" points="71.643,49.564 64.766,42.678 60.349,47.098 67.232,53.973 	"/>
	<polygon fill="#ACACAD" points="44.603,62.844 44.003,70.318 51.479,69.73 	"/>
</g>
</svg>
