<?xml version="1.0" encoding="utf-8"?>
<!-- Generator: Adobe Illustrator 16.0.3, SVG Export Plug-In . SVG Version: 6.00 Build 0)  -->
<!DOCTYPE svg PUBLIC "-//W3C//DTD SVG 1.1//EN" "http://www.w3.org/Graphics/SVG/1.1/DTD/svg11.dtd">
<svg version="1.1" id="Capa_1" xmlns="http://www.w3.org/2000/svg" xmlns:xlink="http://www.w3.org/1999/xlink" x="0px" y="0px"
	 width="120px" height="120px" viewBox="0 0 120 120" enable-background="new 0 0 120 120" xml:space="preserve">
<path fill="#808080" d="M72.909,45.562l-2.531-3.546c-0.824-1.038-1.867-1.573-3.19-1.641h-3.742
	c-1.323,0.067-2.367,0.603-3.19,1.641l-2.45,3.43H43.489c-3.378,0-6.141,2.763-6.141,6.141v14.737c0,3.377,2.763,6.141,6.141,6.141
	h28.247c3.378,0,6.141-2.764,6.141-6.141V51.586C77.877,48.609,75.73,46.113,72.909,45.562z M62.754,43.802
	c-0.003-0.007,0.14-0.148,0.317-0.234c0.171-0.094,0.371-0.127,0.374-0.123h3.742c0.002-0.006,0.201,0.029,0.374,0.123
	c0.176,0.086,0.319,0.228,0.317,0.232l1.174,1.646H61.58L62.754,43.802z M56.374,67.499c-4.822,0-8.745-3.922-8.745-8.743
	s3.923-8.743,8.745-8.743c4.82,0,8.742,3.922,8.742,8.743S61.194,67.499,56.374,67.499z M41.032,66.323V51.586
	c0-1.332,1.125-2.457,2.457-2.457h4.106c-2.615,2.386-4.265,5.81-4.265,9.627c0,4.03,1.829,7.631,4.701,10.023h-4.543
	C42.157,68.779,41.032,67.655,41.032,66.323z M74.192,66.323c0,1.332-1.125,2.456-2.456,2.456h-7.022
	c2.872-2.393,4.702-5.993,4.702-10.023c0-3.817-1.65-7.241-4.266-9.627h6.586c1.331,0,2.456,1.125,2.456,2.457V66.323z"/>
</svg>
