<?xml version="1.0" encoding="utf-8"?>
<!-- Generator: Adobe Illustrator 16.0.3, SVG Export Plug-In . SVG Version: 6.00 Build 0)  -->
<!DOCTYPE svg PUBLIC "-//W3C//DTD SVG 1.1//EN" "http://www.w3.org/Graphics/SVG/1.1/DTD/svg11.dtd">
<svg version="1.1" id="Capa_1" xmlns="http://www.w3.org/2000/svg" xmlns:xlink="http://www.w3.org/1999/xlink" x="0px" y="0px"
	 width="120px" height="120px" viewBox="0 0 120 120" enable-background="new 0 0 120 120" xml:space="preserve">
<g>
	<g>
		<g>
			<path d="M71.669,79.674c-7.42,0-14.84,0-22.26,0c0.833,0.833,1.667,1.667,2.5,2.5c-0.14-7.831-5.193-15.621-13.505-16.282
				c-10.079-0.801-16.043,6.627-16.685,16.282c0.833-0.833,1.667-1.667,2.5-2.5c-2.193,0-4.387,0-6.58,0
				c-2.149,0,0.125,0.197,0.589,0.804c-0.428-0.56-0.768-1.182-1.098-1.802c-3.666-6.897-1.497-15.951,0.971-22.806
				c4.405-12.232,20.122-17.846,31.896-18.408c8.277-0.395,16.422,1.806,23.729,5.596c4.148,2.153,7.896,4.981,11.382,8.075
				c1.88,1.668,4.517,6.092,7.031,6.518c12.009,2.034,12.747,14.773,10.063,24.442c0.804-0.611,1.607-1.224,2.411-1.835
				c-2.551,0-5.103,0-7.653,0c0.804,1.055,1.607,2.109,2.411,3.165c1.158-8.584-4.014-16.395-12.973-17.264
				c-10.049-0.975-16.305,6.517-17.23,16.015c-0.313,3.209,4.69,3.179,5,0c0.591-6.062,4.258-11.452,10.848-11.148
				c4.386,0.202,7.854,2.451,9.112,6.673c0.3,1.007,0.389,2.044,0.425,3.089c0.012,0.323-0.163,2.488-0.004,1.306
				c-0.213,1.578,0.622,3.165,2.411,3.165c2.551,0,5.103,0,7.653,0c1.114,0,2.113-0.764,2.411-1.835
				c3.42-12.322,1.42-26.732-12.678-30.404c-0.353-0.092-0.71-0.166-1.069-0.221c0.366,0.057-2.205-2.877-2.324-3
				c-1.108-1.132-2.292-2.185-3.476-3.236c-4.096-3.636-8.729-6.643-13.645-9.037c-8.417-4.099-17.905-5.711-27.201-4.823
				c-14.724,1.408-29.199,9.634-34.125,24.079c-2.686,7.877-3.464,17.326,0.558,24.893c2.287,4.303,6.86,2.999,11.153,2.999
				c1.431,0,2.41-1.141,2.5-2.5c0.432-6.505,3.775-11.401,10.473-11.379c6.11,0.021,9.618,5.829,9.716,11.379
				c0.024,1.362,1.119,2.5,2.5,2.5c7.42,0,14.84,0,22.26,0C74.894,84.674,74.894,79.674,71.669,79.674z"/>
		</g>
	</g>
	<ellipse fill="none" stroke="#000000" stroke-width="4" stroke-miterlimit="10" cx="36.502" cy="81.396" rx="9.25" ry="9.369"/>
	<ellipse fill="none" stroke="#000000" stroke-width="4" stroke-miterlimit="10" cx="84.829" cy="81.396" rx="9.25" ry="9.369"/>
	<g>
		<g>
			<g>
				<path d="M76.382,53.58c-15.718,0-31.436,0-47.154,0c-3.224,0-3.224,5,0,5c15.718,0,31.436,0,47.154,0
					C79.606,58.58,79.606,53.58,76.382,53.58L76.382,53.58z"/>
			</g>
		</g>
		<g>
			<g>
				<path d="M57.604,56.08c0,5.468,0,10.935,0,16.402c0,3.225,5,3.225,5,0c0-5.468,0-10.935,0-16.402
					C62.604,52.856,57.604,52.856,57.604,56.08L57.604,56.08z"/>
			</g>
		</g>
	</g>
	<g>
		<g>
			<path d="M104.934,68.538c-0.213,0.043,0.839-0.08,0.173-0.03c-0.166,0.012-1.057-0.083-0.492,0.014
				c-0.401-0.069-0.478-0.133-0.453-0.113c-0.289-0.238-0.314-0.515-0.413-0.938c-0.081-0.347-0.051-0.72-0.155-1.067
				c-0.042-0.14-0.169-0.966-0.11-0.42c-0.057-0.522-0.015-0.643,0.055-0.901c-0.043,0.157,0.45-0.156,0.796-0.231
				c3.148-0.689,1.813-5.51-1.33-4.822c-2.189,0.479-3.993,1.989-4.408,4.262c-0.179,0.974-0.11,1.832,0.033,2.805
				c0.123,0.837,0.127,0.583,0.232,1.273c0.561,3.664,3.874,5.688,7.403,4.992C109.425,72.735,108.083,67.917,104.934,68.538
				L104.934,68.538z"/>
		</g>
	</g>
</g>
</svg>
