<?xml version="1.0" encoding="utf-8"?>
<!-- Generator: Adobe Illustrator 16.0.3, SVG Export Plug-In . SVG Version: 6.00 Build 0)  -->
<!DOCTYPE svg PUBLIC "-//W3C//DTD SVG 1.1//EN" "http://www.w3.org/Graphics/SVG/1.1/DTD/svg11.dtd">
<svg version="1.1" id="Capa_1" xmlns="http://www.w3.org/2000/svg" xmlns:xlink="http://www.w3.org/1999/xlink" x="0px" y="0px"
	 width="120px" height="120px" viewBox="0 0 120 120" enable-background="new 0 0 120 120" xml:space="preserve">
<g>
	<path fill="#FFFFFF" d="M57.691,61.324c-0.512,0-1.023-0.15-1.453-0.465l-23.342-16.43c-0.906-0.635-1.303-1.779-0.955-2.838
		c0.328-1.047,1.301-1.762,2.406-1.762h46.703c1.105,0,2.078,0.715,2.406,1.762c0.346,1.059-0.049,2.203-0.955,2.838l-23.359,16.43
		C58.713,61.174,58.201,61.324,57.691,61.324z M42.35,44.892l15.342,10.797l15.357-10.797H42.35z"/>
	<path fill="#FFFFFF" d="M81.051,74.461H34.348c-1.402,0-2.539-1.129-2.539-2.531v-28.34c0-0.947,0.527-1.814,1.369-2.252
		c0.875-0.43,1.865-0.355,2.623,0.18l21.891,15.41l21.906-15.41c0.775-0.535,1.748-0.609,2.623-0.18
		c0.842,0.438,1.367,1.305,1.367,2.252v28.34C83.588,73.332,82.453,74.461,81.051,74.461z M36.889,69.398H78.51V48.472
		L59.143,62.098c-0.857,0.629-2.045,0.629-2.904,0l-19.35-13.625V69.398z"/>
</g>
</svg>
