<?xml version="1.0" encoding="utf-8"?>
<!-- Generator: Adobe Illustrator 16.0.3, SVG Export Plug-In . SVG Version: 6.00 Build 0)  -->
<!DOCTYPE svg PUBLIC "-//W3C//DTD SVG 1.1//EN" "http://www.w3.org/Graphics/SVG/1.1/DTD/svg11.dtd">
<svg version="1.1" id="Capa_1" xmlns="http://www.w3.org/2000/svg" xmlns:xlink="http://www.w3.org/1999/xlink" x="0px" y="0px"
	 width="120px" height="120px" viewBox="0 0 120 120" enable-background="new 0 0 120 120" xml:space="preserve">
<g>
	<path fill="#BCBEC0" d="M79.84,56.754c0,12.914-10.468,23.381-23.381,23.381c-12.921,0-23.388-10.467-23.388-23.381
		s10.467-23.389,23.388-23.389C69.372,33.365,79.84,43.84,79.84,56.754z"/>
	<path fill="#FFFFFF" d="M67.608,50.111H45.303c-1.046,0-1.898-0.852-1.898-1.896s0.853-1.898,1.898-1.898h22.306
		c1.053,0,1.897,0.854,1.897,1.898S68.661,50.111,67.608,50.111z"/>
	<path fill="#FFFFFF" d="M67.608,58.652H45.303c-1.046,0-1.898-0.854-1.898-1.898c0-1.045,0.853-1.898,1.898-1.898h22.306
		c1.053,0,1.897,0.854,1.897,1.898C69.506,57.798,68.661,58.652,67.608,58.652z"/>
	<path fill="#FFFFFF" d="M67.608,67.191H45.303c-1.046,0-1.898-0.854-1.898-1.898s0.853-1.896,1.898-1.896h22.306
		c1.053,0,1.897,0.852,1.897,1.896S68.661,67.191,67.608,67.191z"/>
</g>
</svg>
