<?xml version="1.0" encoding="utf-8"?>
<!-- Generator: Adobe Illustrator 16.0.3, SVG Export Plug-In . SVG Version: 6.00 Build 0)  -->
<!DOCTYPE svg PUBLIC "-//W3C//DTD SVG 1.1//EN" "http://www.w3.org/Graphics/SVG/1.1/DTD/svg11.dtd">
<svg version="1.1" id="Capa_1" xmlns="http://www.w3.org/2000/svg" xmlns:xlink="http://www.w3.org/1999/xlink" x="0px" y="0px"
	 width="120px" height="120px" viewBox="0 0 120 120" enable-background="new 0 0 120 120" xml:space="preserve">
<g>
	<path fill="#FFFFFF" d="M64.616,80.414h-18.67c-3.537,0-6.414-2.887-6.414-6.418V58.461c0-3.533,2.877-6.42,6.414-6.42h18.67
		c3.537,0,6.415,2.887,6.415,6.42v15.535C71.031,77.527,68.153,80.414,64.616,80.414z M45.946,57.518
		c-0.52,0-0.937,0.428-0.937,0.943v15.535c0,0.514,0.417,0.941,0.937,0.941h18.67c0.52,0,0.938-0.428,0.938-0.941V58.461
		c0-0.516-0.418-0.943-0.938-0.943H45.946z"/>
	<path fill="#FFFFFF" d="M47.294,54.779h-5.479v-5.906c0-7.426,6.04-13.461,13.467-13.461c7.424,0,13.465,6.035,13.465,13.461
		h-5.479c0-4.408-3.584-7.982-7.986-7.982c-4.404,0-7.988,3.574-7.988,7.982V54.779z"/>
</g>
</svg>
