<?xml version="1.0" encoding="utf-8"?>
<!-- Generator: Adobe Illustrator 16.0.3, SVG Export Plug-In . SVG Version: 6.00 Build 0)  -->
<!DOCTYPE svg PUBLIC "-//W3C//DTD SVG 1.1//EN" "http://www.w3.org/Graphics/SVG/1.1/DTD/svg11.dtd">
<svg version="1.1" id="Capa_1" xmlns="http://www.w3.org/2000/svg" xmlns:xlink="http://www.w3.org/1999/xlink" x="0px" y="0px"
	 width="120px" height="120px" viewBox="0 0 120 120" enable-background="new 0 0 120 120" xml:space="preserve">
<g>
	<path fill="#FFFFFF" d="M76.268,51.14l-6.883-5.253v-8.689h-4.916v4.938l-7.175-5.479L38.321,51.14l2.984,3.909l2.043-1.561v17.949
		H71.24V53.488l2.043,1.561L76.268,51.14z M68.51,68.706h-6.299v-10.38h-9.833v10.38h-6.299V51.75l11.217-8.563L68.51,51.75V68.706z
		"/>
	<path fill="#FFFFFF" d="M57.772,89.438c-18.225,0-33.041-14.827-33.041-33.051c0-18.214,14.816-33.04,33.041-33.04
		c18.212,0,33.029,14.826,33.029,33.04C90.801,74.611,75.984,89.438,57.772,89.438z M57.772,26.527
		c-16.479,0-29.871,13.392-29.871,29.86s13.393,29.871,29.871,29.871c16.458,0,29.859-13.402,29.859-29.871
		S74.23,26.527,57.772,26.527z"/>
</g>
</svg>
