<?xml version="1.0" encoding="utf-8"?>
<!-- Generator: Adobe Illustrator 16.0.3, SVG Export Plug-In . SVG Version: 6.00 Build 0)  -->
<!DOCTYPE svg PUBLIC "-//W3C//DTD SVG 1.1//EN" "http://www.w3.org/Graphics/SVG/1.1/DTD/svg11.dtd">
<svg version="1.1" id="Capa_1" xmlns="http://www.w3.org/2000/svg" xmlns:xlink="http://www.w3.org/1999/xlink" x="0px" y="0px"
	 width="120px" height="120px" viewBox="0 0 120 120" enable-background="new 0 0 120 120" xml:space="preserve">
<g>
	<path fill="#FFFFFF" d="M72.257,51.5v-6.07H60.302l-4.41-2.729H42.203v30.578h27.944h2.111c4.035,0,4.223-5.849,4.223-7.54
		c0-1.692,0-14.239,0-14.239H72.257z M45.894,46.392h8.949l4.409,2.729h9.314v2.38H48.28c0,0,0,11.705,0,13.397
		c0,1.382-0.823,3.034-2.176,4.691h-0.211V46.392z M74.372,65.739c0,0.907-0.102,5.431-2.113,5.431H47.534
		c1.834-2.18,2.854-4.372,2.854-6.272V53.609h23.983V65.739z"/>
	<g>
		<path fill="#FFFFFF" d="M58.347,90.026c-18.223,0-33.039-14.827-33.039-33.051c0-18.214,14.816-33.04,33.039-33.04
			c18.215,0,33.031,14.826,33.031,33.04C91.378,75.199,76.562,90.026,58.347,90.026z M58.347,27.115
			c-16.479,0-29.869,13.392-29.869,29.86s13.391,29.871,29.869,29.871c16.459,0,29.861-13.402,29.861-29.871
			S74.806,27.115,58.347,27.115z"/>
	</g>
</g>
</svg>
