<?xml version="1.0" encoding="utf-8"?>
<!-- Generator: Adobe Illustrator 16.0.3, SVG Export Plug-In . SVG Version: 6.00 Build 0)  -->
<!DOCTYPE svg PUBLIC "-//W3C//DTD SVG 1.1//EN" "http://www.w3.org/Graphics/SVG/1.1/DTD/svg11.dtd">
<svg version="1.1" id="Capa_1" xmlns="http://www.w3.org/2000/svg" xmlns:xlink="http://www.w3.org/1999/xlink" x="0px" y="0px"
	 width="120px" height="120px" viewBox="0 0 120 120" enable-background="new 0 0 120 120" xml:space="preserve">
<g>
	<g>
		<g>
			<path fill="#FFFFFF" d="M55.28,44.783v-1.191h3.355v1.191c0,0.63,0.516,1.147,1.146,1.147h0.289c0.631,0,1.146-0.518,1.146-1.147
				v-1.191h3.355v1.191c0,0.63,0.516,1.147,1.148,1.147h0.287c0.631,0,1.146-0.518,1.146-1.147v-1.191h0.686l2.184,2.146v3.433
				h2.297v-4.396l-3.543-3.478h-1.623v-1.163c0-0.63-0.516-1.148-1.146-1.148h-0.287c-0.633,0-1.148,0.519-1.148,1.148v1.163h-3.355
				v-1.163c0-0.63-0.516-1.148-1.146-1.148h-0.289c-0.631,0-1.146,0.519-1.146,1.148v1.163H55.28v-1.163
				c0-0.63-0.516-1.148-1.146-1.148h-0.287c-0.633,0-1.148,0.519-1.148,1.148v1.163h-3.355v-1.163c0-0.63-0.516-1.148-1.146-1.148
				h-0.287c-0.631,0-1.148,0.519-1.148,1.148v1.163h-5.434v34.42h10.141l0.574-2.295h-8.418v-29.83h3.137v1.191
				c0,0.63,0.518,1.147,1.148,1.147h0.287c0.631,0,1.146-0.518,1.146-1.147v-1.191h3.355v1.191c0,0.63,0.516,1.147,1.148,1.147
				h0.287C54.765,45.93,55.28,45.413,55.28,44.783z"/>
		</g>
		<path fill="#FFFFFF" d="M77.317,56.435l-3.672-3.674c-0.895-0.895-2.34-0.911-3.213-0.039c-0.002,0.001-0.002,0.003-0.004,0.004
			v-0.001L57.032,66.122l-0.27,0.268l-2.32,9.26l9.25-2.32l0.863-0.879l0,0l12.799-12.802l0,0c0,0,0-0.001,0.002-0.002
			C78.228,58.774,78.212,57.328,77.317,56.435z M57.71,67.323l5.059,5.057l-4.748,1.189l-1.482-1.561L57.71,67.323z M63.698,69.251
			l-2.869-2.867l9.6-9.601l2.867,2.868L63.698,69.251z"/>
	</g>
	<path fill="#FFFFFF" d="M56.735,90.563c-18.223,0-33.039-14.826-33.039-33.05c0-18.214,14.816-33.04,33.039-33.04
		c18.215,0,33.031,14.826,33.031,33.04C89.767,75.737,74.95,90.563,56.735,90.563z M56.735,27.653
		c-16.479,0-29.869,13.392-29.869,29.86c0,16.468,13.391,29.871,29.869,29.871c16.459,0,29.861-13.402,29.861-29.871
		C86.597,41.044,73.194,27.653,56.735,27.653z"/>
</g>
</svg>
