<?xml version="1.0" encoding="utf-8"?>
<!-- Generator: Adobe Illustrator 16.0.3, SVG Export Plug-In . SVG Version: 6.00 Build 0)  -->
<!DOCTYPE svg PUBLIC "-//W3C//DTD SVG 1.1//EN" "http://www.w3.org/Graphics/SVG/1.1/DTD/svg11.dtd">
<svg version="1.1" id="Capa_1" xmlns="http://www.w3.org/2000/svg" xmlns:xlink="http://www.w3.org/1999/xlink" x="0px" y="0px"
	 width="120px" height="120px" viewBox="0 0 120 120" enable-background="new 0 0 120 120" xml:space="preserve">
<g>
	<path fill="#188837" d="M84.72,58.188c0,5.325-4.127,9.643-9.215,9.643H38.137c-5.089,0-9.214-4.317-9.214-9.643V56.11
		c0-5.326,4.125-9.644,9.214-9.644h37.368c5.088,0,9.215,4.317,9.215,9.644V58.188z"/>
	<g>
		<path fill="#2D9B4B" d="M79.024,58.021c0,4.344-3.521,7.867-7.867,7.867H39.25c-4.346,0-7.868-3.523-7.868-7.867v-1.694
			c0-4.347,3.522-7.869,7.868-7.869h31.908c4.346,0,7.867,3.522,7.867,7.869V58.021z"/>
		<g>
			<ellipse fill="#D4D3D3" cx="74.065" cy="57.169" rx="8.572" ry="8.711"/>
			<path fill="#EFEEEE" d="M79.665,51.549L68.704,62.55c0,0-4.385-5.232,0-10.425C68.704,52.125,72.05,47.165,79.665,51.549z"/>
		</g>
	</g>
</g>
</svg>
